<?xml version="1.0" encoding="UTF-8"?>
<svg width="174px" height="28px" viewBox="0 0 174 28" version="1.1" xmlns="http://www.w3.org/2000/svg" xmlns:xlink="http://www.w3.org/1999/xlink">
    <title>Group Copy 2</title>
    <g id="Symbols" stroke="none" stroke-width="1" fill="none" fill-rule="evenodd">
        <g id="footer-new" transform="translate(-124.000000, -94.000000)" fill-rule="nonzero">
            <g id="Group-Copy-2" transform="translate(124.000000, 94.000000)">
                <g id="Group-4">
                    <path d="M21.4733586,27.9971488 L31.4191183,27.9971488 C32.9800158,27.9971488 34.0358097,26.3888618 33.4233951,24.9410709 L23.4776354,1.3385265 C22.7259875,-0.446175501 20.2186095,-0.446175501 19.4670794,1.3385265 L9.52120193,24.9390513 C8.91078981,26.3888618 9.96458117,27.9951293 11.5254787,27.9951293 L21.4733586,27.9951293 L21.4733586,27.9971488 Z" id="Path" fill="#4E73DF"></path>
                    <path d="M12.1279986,27.9971488 L22.0737582,27.9971488 C23.6346557,27.9971488 24.6905674,26.3888618 24.0800375,24.9410709 L14.1322753,1.3385265 C13.3806274,-0.446175501 10.8732495,-0.446175501 10.1217193,1.3385265 L0.175841859,24.9410709 C-0.43457026,26.3908814 0.619221098,27.9971488 2.18011863,27.9971488 L12.1279986,27.9971488 L12.1279986,27.9971488 Z" id="Path" fill="#FFFFFF"></path>
                    <path d="M24.0800375,24.9419025 L16.8005608,7.66618193 L9.52120193,24.9419025 C8.91078981,26.391713 9.96458117,28 11.5274812,28 L12.1278808,28 L21.4752434,28 L22.0757607,28 C23.6366583,27.9979804 24.6904496,26.391713 24.0800375,24.9419025 Z" id="Path" fill="#4E73DF" opacity="0.2"></path>
                </g>
                <g id="Group-6" transform="translate(49.200000, 0.000000)" fill="#FFFFFF">
                    <path d="M2.65257134,15.3354165 C2.91063012,16.652176 3.52213767,17.6760118 4.48509446,18.4031983 C5.44805126,19.1302685 6.63530982,19.4938617 8.04498823,19.4938617 C10.0108927,19.4938617 11.4399784,18.7765713 12.3350684,17.3419903 L14.5392714,18.5800469 C13.0901902,20.8027044 10.9036302,21.9130435 7.98547239,21.9130435 C5.62271729,21.9130435 3.69892087,21.1800357 2.21972891,19.7159994 C0.740536944,18.2518467 0,16.3986037 0,14.1582498 C0,11.9375716 0.724658213,10.0881707 2.17409226,8.61423828 C3.62340869,7.14030591 5.50168608,6.40333972 7.80480773,6.40333972 C9.98854485,6.40333972 11.7716675,7.16591926 13.1513527,8.68898272 C14.531038,10.2120462 15.2226449,12.0456134 15.2226449,14.1877052 C15.2226449,14.5610781 15.1920637,14.9443471 15.1332535,15.3373957 L2.65257134,15.3373957 L2.65257134,15.3354165 Z M7.80668965,8.81867946 C6.41688906,8.81867946 5.2633875,9.20776966 4.35006644,9.98408729 C3.43686301,10.7602885 2.8709921,11.7979788 2.65257134,13.0950626 L12.6032425,13.0950626 C12.3856451,11.6997166 11.8293014,10.6385086 10.9353877,9.90934285 C10.0426501,9.18227273 9.00053495,8.81867946 7.80668965,8.81867946 Z" id="Shape"></path>
                    <path d="M22.8220877,10.7184921 C22.8220877,11.2766305 23.1149621,11.7226522 23.7007108,12.0587694 C24.2864595,12.3947701 24.9827713,12.6817561 25.7931746,12.9156526 C26.6012256,13.151412 27.4151576,13.3872877 28.2349705,13.6250262 C29.0547835,13.8628812 29.7475666,14.3089029 30.3133199,14.9633242 C30.8790732,15.617862 31.1648904,16.4569323 31.1648904,17.484843 C31.1648904,18.8211618 30.6438328,19.8922659 29.6005414,20.6999017 C28.5584262,21.5056746 27.2222604,21.9085029 25.5943965,21.9085029 C24.1453153,21.9085029 22.9020695,21.5941572 21.8693639,20.9652328 C20.8366583,20.3363084 20.1003557,19.50108 19.6663371,18.4595477 L21.8999451,17.1919193 C22.137538,17.8994301 22.5844949,18.4595477 23.2396395,18.8722721 C23.8947842,19.2849964 24.6793111,19.4913004 25.592044,19.4913004 C26.4459669,19.4913004 27.150512,19.3301691 27.7068557,19.0059272 C28.2631994,18.681569 28.5407831,18.1765201 28.5407831,17.488685 C28.5407831,16.9187878 28.2526136,16.46287 27.6750983,16.1209316 C27.0987591,15.7770141 26.405976,15.4842068 25.5967489,15.2443726 C24.7863455,15.0026757 23.9724135,14.7609787 23.1537768,14.5192817 C22.3339638,14.2754891 21.637652,13.8392471 21.0613129,13.2104391 C20.48615,12.5815147 20.1979805,11.7757417 20.1979805,10.7911409 C20.1979805,9.51373288 20.6978664,8.4623045 21.7023432,7.63697222 C22.7056437,6.81152352 23.9618277,6.39879917 25.4708952,6.39879917 C26.6823835,6.39879917 27.760961,6.66808871 28.703099,7.21050979 C29.6464132,7.75095167 30.3568394,8.50363514 30.8343775,9.46658101 L28.6584033,10.6751823 C28.1220551,9.41744993 27.0599445,8.78852555 25.4708952,8.78852555 C24.736945,8.78852555 24.1112054,8.95757372 23.5948526,9.29369084 C23.0784998,9.62969154 22.8220877,10.1033058 22.8220877,10.7184921 Z" id="Path"></path>
                    <path d="M43.7973027,21.9102493 C41.5531087,21.9102493 39.6852995,21.1693247 38.1962275,19.6836334 C36.7071554,18.199805 35.9626194,16.3564581 35.9626194,14.15336 C35.9626194,11.9523575 36.7071554,10.1088942 38.1962275,8.62320296 C39.6852995,7.13937451 41.5519325,6.3965871 43.7973027,6.3965871 C45.2663793,6.3965871 46.5872544,6.74632588 47.7599281,7.44405706 C48.9314255,8.14167181 49.8053438,9.08109996 50.3805067,10.2602459 L48.2068849,11.4983025 C47.829324,10.7122052 47.2482801,10.0833973 46.4637532,9.61176219 C45.6792263,9.14001069 44.7900174,8.90425136 43.7973027,8.90425136 C42.3082306,8.90425136 41.0614562,9.4053418 40.0581557,10.4076391 C39.0560313,11.4099364 38.553793,12.6597519 38.553793,14.15336 C38.553793,15.6272924 39.0560313,16.8674446 40.0581557,17.8696255 C41.0614562,18.8719228 42.3082306,19.3749925 43.7973027,19.3749925 C44.7900174,19.3749925 45.6827549,19.1431916 46.4790438,18.6813361 C47.2741565,18.2194807 47.8787245,17.596494 48.2962763,16.8084175 L50.5004793,18.0760459 C49.8641539,19.2355161 48.951421,20.1650482 47.7599281,20.8627793 C46.567259,21.5603941 45.2463838,21.9102493 43.7973027,21.9102493 Z" id="Path"></path>
                    <path d="M68.1658611,6.78206815 L70.7570347,6.78206815 L70.7570347,21.5273296 L68.1658611,21.5273296 L68.1658611,18.9921892 C66.8755672,20.9377566 64.9971722,21.9124614 62.5353809,21.9124614 C60.4499743,21.9124614 58.6715565,21.1597779 57.2024798,19.6563901 C55.7334032,18.1530024 54.9982768,16.3194352 54.9982768,14.1556885 C54.9982768,11.993921 55.7334032,10.1603538 57.2024798,8.65498681 C58.6715565,7.15148264 60.4499743,6.39879917 62.5353809,6.39879917 C64.9971722,6.39879917 66.8755672,7.37164111 68.1658611,9.31720856 L68.1658611,6.78206815 Z M62.8623651,19.4343689 C64.3714326,19.4343689 65.6346738,18.9292036 66.647384,17.9151474 C67.6589179,16.9030705 68.1658611,15.6492966 68.1658611,14.1556885 C68.1658611,12.6620804 67.6589179,11.4083065 66.647384,10.3961131 C65.6346738,9.38403614 64.3714326,8.87700806 62.8623651,8.87700806 C61.373293,8.87700806 60.12299,9.38403614 59.1079275,10.3961131 C58.0952173,11.4101693 57.5894504,12.6620804 57.5894504,14.1556885 C57.5894504,15.6511594 58.0952173,16.9030705 59.1079275,17.9151474 C60.12299,18.9272244 61.373293,19.4343689 62.8623651,19.4343689 Z" id="Shape"></path>
                    <polygon id="Path" points="77.6695754 21.5273296 77.6695754 0 80.2631014 0 80.2631014 21.5273296"></polygon>
                    <path d="M99.5375278,6.78206815 L102.128701,6.78206815 L102.128701,21.5273296 L99.5375278,21.5273296 L99.5375278,18.9921892 C98.2472339,20.9377566 96.3688389,21.9124614 93.9070476,21.9124614 C91.821641,21.9124614 90.0432232,21.1597779 88.5741465,19.6563901 C87.1050699,18.1530024 86.3699435,16.3194352 86.3699435,14.1556885 C86.3699435,11.993921 87.1050699,10.1603538 88.5741465,8.65498681 C90.0432232,7.15148264 91.821641,6.39879917 93.9070476,6.39879917 C96.3688389,6.39879917 98.2472339,7.37164111 99.5375278,9.31720856 L99.5375278,6.78206815 Z M94.2340318,19.4343689 C95.7430993,19.4343689 97.0063406,18.9292036 98.0178745,17.9151474 C99.0305847,16.9030705 99.5375278,15.6492966 99.5375278,14.1556885 C99.5375278,12.6620804 99.0305847,11.4083065 98.0178745,10.3961131 C97.0063406,9.38403614 95.7430993,8.87700806 94.2340318,8.87700806 C92.7449598,8.87700806 91.4946568,9.38403614 90.4795942,10.3961131 C89.4668841,11.4101693 88.9611171,12.6620804 88.9611171,14.1556885 C88.9611171,15.6511594 89.4668841,16.9030705 90.4795942,17.9151474 C91.4923044,18.9272244 92.7426074,19.4343689 94.2340318,19.4343689 Z" id="Shape"></path>
                    <path d="M117.262896,6.39903201 C119.348303,6.39903201 121.12672,7.1498527 122.595797,8.65521966 C124.064874,10.1605866 124.8,11.9921746 124.8,14.1559213 C124.8,16.319668 124.064874,18.151256 122.595797,19.656623 C121.12672,21.1600107 119.348303,21.9126942 117.262896,21.9126942 C114.801105,21.9126942 112.92271,20.9399687 111.632416,18.992422 L111.632416,21.5275624 L109.03889,21.5275624 L109.03889,0.884592276 L111.632416,0.884592276 L111.632416,9.31942062 C112.92271,7.37187395 114.798752,6.39903201 117.262896,6.39903201 Z M116.935912,19.4346017 C118.424984,19.4346017 119.677639,18.9294364 120.690349,17.9153803 C121.701883,16.9033033 122.211179,15.6495294 122.211179,14.1559213 C122.211179,12.6623132 121.704236,11.4085393 120.690349,10.3963459 C119.677639,9.38426899 118.42616,8.87724091 116.935912,8.87724091 C115.426844,8.87724091 114.165955,9.38426899 113.150893,10.3963459 C112.138183,11.4104021 111.632416,12.6623132 111.632416,14.1559213 C111.632416,15.6513922 112.138183,16.9033033 113.150893,17.9153803 C114.163603,18.9274572 115.426844,19.4346017 116.935912,19.4346017 Z" id="Shape"></path>
                </g>
            </g>
        </g>
    </g>
</svg>